<svg width="62" height="63" viewBox="0 0 62 63" fill="none" xmlns="http://www.w3.org/2000/svg">
<path d="M49.4 17.4545H42.5299L39.1236 12.4045C39.0397 12.2803 38.9262 12.1784 38.793 12.1079C38.6598 12.0373 38.5111 12.0003 38.36 12H23.64C23.4889 12.0003 23.3402 12.0373 23.207 12.1079C23.0738 12.1784 22.9603 12.2803 22.8764 12.4045L19.4655 17.4545H12.6C11.38 17.4545 10.21 17.9334 9.34731 18.7859C8.48464 19.6383 8 20.7945 8 22V47.4545C8 48.6601 8.48464 49.8162 9.34731 50.6687C10.21 51.5211 11.38 52 12.6 52H49.4C50.62 52 51.79 51.5211 52.6527 50.6687C53.5154 49.8162 54 48.6601 54 47.4545V22C54 20.7945 53.5154 19.6383 52.6527 18.7859C51.79 17.9334 50.62 17.4545 49.4 17.4545ZM52.16 47.4545C52.16 48.1779 51.8692 48.8716 51.3516 49.383C50.834 49.8945 50.132 50.1818 49.4 50.1818H12.6C11.868 50.1818 11.166 49.8945 10.6484 49.383C10.1308 48.8716 9.84 48.1779 9.84 47.4545V22C9.84 21.2767 10.1308 20.583 10.6484 20.0715C11.166 19.5601 11.868 19.2727 12.6 19.2727H19.96C20.1115 19.2728 20.2607 19.2359 20.3943 19.1654C20.5279 19.0948 20.6418 18.9927 20.7259 18.8682L24.1299 13.8182H37.8655L41.2741 18.8682C41.3582 18.9927 41.4721 19.0948 41.6057 19.1654C41.7393 19.2359 41.8885 19.2728 42.04 19.2727H49.4C50.132 19.2727 50.834 19.5601 51.3516 20.0715C51.8692 20.583 52.16 21.2767 52.16 22V47.4545ZM31 24.7273C29.1804 24.7273 27.4017 25.2604 25.8888 26.2594C24.3758 27.2583 23.1966 28.6781 22.5003 30.3392C21.804 32.0004 21.6218 33.8283 21.9768 35.5917C22.3318 37.3552 23.208 38.975 24.4946 40.2464C25.7813 41.5178 27.4205 42.3836 29.2052 42.7344C30.9898 43.0852 32.8396 42.9052 34.5207 42.2171C36.2018 41.529 37.6386 40.3638 38.6495 38.8688C39.6604 37.3738 40.2 35.6162 40.2 33.8182C40.2 31.4071 39.2307 29.0948 37.5054 27.3899C35.78 25.6851 33.44 24.7273 31 24.7273ZM31 41.0909C29.5443 41.0909 28.1213 40.6644 26.911 39.8652C25.7007 39.0661 24.7573 37.9303 24.2002 36.6013C23.6432 35.2724 23.4974 33.8101 23.7814 32.3993C24.0654 30.9886 24.7664 29.6927 25.7957 28.6756C26.825 27.6585 28.1364 26.9658 29.5641 26.6852C30.9918 26.4046 32.4717 26.5486 33.8165 27.0991C35.1614 27.6495 36.3109 28.5817 37.1196 29.7777C37.9283 30.9737 38.36 32.3798 38.36 33.8182C38.36 35.747 37.5846 37.5969 36.2043 38.9608C34.824 40.3247 32.952 41.0909 31 41.0909Z" fill="#C0C0C0" fill-opacity="0.6"/>
</svg>
