<svg width="62" height="63" viewBox="0 0 62 63" fill="none" xmlns="http://www.w3.org/2000/svg">
<mask id="mask0_69_109" style="mask-type:alpha" maskUnits="userSpaceOnUse" x="7" y="9" width="48" height="46">
<path d="M8 49.4871V24.6666C8 23.4698 8.48464 22.3219 9.34731 21.4756C10.21 20.6293 11.38 20.1538 12.6 20.1538H49.4C50.62 20.1538 51.79 20.6293 52.6527 21.4756C53.5154 22.3219 54 23.4698 54 24.6666V49.4871C54 50.684 53.5154 51.8319 52.6527 52.6782C51.79 53.5245 50.62 54 49.4 54H12.6C11.38 54 10.21 53.5245 9.34731 52.6782C8.48464 51.8319 8 50.684 8 49.4871Z" stroke="black" stroke-width="1.5"/>
<path d="M22.95 10L31 17.8974L39.05 10" stroke="black" stroke-width="1.5" stroke-linecap="round" stroke-linejoin="round"/>
</mask>
<g mask="url(#mask0_69_109)">
<rect x="-14" y="-12" width="89.0323" height="87.3449" fill="#00B654"/>
</g>
</svg>
