<svg width="62" height="63" viewBox="0 0 62 63" fill="none" xmlns="http://www.w3.org/2000/svg">
<path d="M50.375 9.21875H11.625C10.8542 9.21875 10.115 9.52494 9.56997 10.07C9.02494 10.615 8.71875 11.3542 8.71875 12.125V50.875C8.71875 51.6458 9.02494 52.385 9.56997 52.93C10.115 53.4751 10.8542 53.7812 11.625 53.7812H50.375C51.1458 53.7812 51.885 53.4751 52.43 52.93C52.9751 52.385 53.2812 51.6458 53.2812 50.875V12.125C53.2812 11.3542 52.9751 10.615 52.43 10.07C51.885 9.52494 51.1458 9.21875 50.375 9.21875ZM51.3438 50.875C51.3438 51.1319 51.2417 51.3783 51.06 51.56C50.8783 51.7417 50.6319 51.8438 50.375 51.8438H11.625C11.3681 51.8438 11.1217 51.7417 10.94 51.56C10.7583 51.3783 10.6562 51.1319 10.6562 50.875V12.125C10.6562 11.8681 10.7583 11.6217 10.94 11.44C11.1217 11.2583 11.3681 11.1562 11.625 11.1562H50.375C50.6319 11.1562 50.8783 11.2583 51.06 11.44C51.2417 11.6217 51.3438 11.8681 51.3438 12.125V50.875ZM31 16.9688C28.126 16.9688 25.3165 17.821 22.9269 19.4177C20.5372 21.0144 18.6747 23.2839 17.5749 25.9391C16.475 28.5944 16.1873 31.5161 16.748 34.3349C17.3087 37.1537 18.6926 39.7429 20.7249 41.7751C22.7571 43.8074 25.3463 45.1913 28.1651 45.752C30.9839 46.3127 33.9056 46.025 36.5609 44.9251C39.2161 43.8253 41.4856 41.9628 43.0823 39.5731C44.679 37.1835 45.5312 34.374 45.5312 31.5C45.5268 27.6474 43.9944 23.954 41.2702 21.2298C38.546 18.5056 34.8526 16.9732 31 16.9688ZM31 44.0938C28.5092 44.0938 26.0743 43.3551 24.0033 41.9713C21.9323 40.5875 20.3181 38.6206 19.3649 36.3194C18.4117 34.0182 18.1623 31.486 18.6482 29.0431C19.1342 26.6001 20.3336 24.3561 22.0949 22.5949C23.8561 20.8336 26.1001 19.6342 28.5431 19.1482C30.986 18.6623 33.5182 18.9117 35.8194 19.8649C38.1206 20.8181 40.0875 22.4323 41.4713 24.5033C42.8551 26.5743 43.5938 29.0092 43.5938 31.5C43.5899 34.8389 42.2618 38.0399 39.9009 40.4009C37.5399 42.7618 34.3389 44.0899 31 44.0938ZM47.4688 16.9688C47.4688 17.352 47.3551 17.7265 47.1422 18.0452C46.9293 18.3638 46.6267 18.6121 46.2727 18.7588C45.9187 18.9054 45.5291 18.9438 45.1533 18.869C44.7774 18.7943 44.4322 18.6097 44.1612 18.3388C43.8903 18.0678 43.7057 17.7226 43.631 17.3467C43.5562 16.9709 43.5946 16.5813 43.7412 16.2273C43.8879 15.8733 44.1362 15.5707 44.4548 15.3578C44.7735 15.1449 45.148 15.0312 45.5312 15.0312C46.0451 15.0312 46.5379 15.2354 46.9013 15.5987C47.2646 15.9621 47.4688 16.4549 47.4688 16.9688ZM29.7479 28.3104L25.8729 32.1854C25.6911 32.3672 25.4446 32.4693 25.1875 32.4693C24.9304 32.4693 24.6839 32.3672 24.5021 32.1854C24.3203 32.0036 24.2182 31.7571 24.2182 31.5C24.2182 31.2429 24.3203 30.9964 24.5021 30.8146L28.3771 26.9396C28.5589 26.7578 28.8054 26.6557 29.0625 26.6557C29.3196 26.6557 29.5661 26.7578 29.7479 26.9396C29.9297 27.1214 30.0318 27.3679 30.0318 27.625C30.0318 27.8821 29.9297 28.1286 29.7479 28.3104ZM37.4979 28.8771C37.588 28.9671 37.6594 29.0739 37.7082 29.1915C37.7569 29.3091 37.782 29.4352 37.782 29.5625C37.782 29.6898 37.7569 29.8159 37.7082 29.9335C37.6594 30.0511 37.588 30.1579 37.4979 30.2479L29.7479 37.9979C29.5661 38.1797 29.3196 38.2818 29.0625 38.2818C28.8054 38.2818 28.5589 38.1797 28.3771 37.9979C28.1953 37.8161 28.0932 37.5696 28.0932 37.3125C28.0932 37.0554 28.1953 36.8089 28.3771 36.6271L36.1271 28.8771C36.2171 28.787 36.3239 28.7156 36.4415 28.6668C36.5591 28.6181 36.6852 28.593 36.8125 28.593C36.9398 28.593 37.0659 28.6181 37.1835 28.6668C37.3011 28.7156 37.4079 28.787 37.4979 28.8771Z" fill="#C0C0C0" fill-opacity="0.6"/>
</svg>
