<svg width="62" height="54" viewBox="0 0 62 54" fill="none" xmlns="http://www.w3.org/2000/svg">
<g clip-path="url(#clip0_69_104)">
<path d="M42.4444 7H17.5556C16.6126 7 15.7082 7.30102 15.0414 7.83684C14.3746 8.37266 14 9.09938 14 9.85714V44.1429C14 44.9006 14.3746 45.6273 15.0414 46.1632C15.7082 46.699 16.6126 47 17.5556 47H42.4444C43.3874 47 44.2918 46.699 44.9586 46.1632C45.6254 45.6273 46 44.9006 46 44.1429V9.85714C46 9.09938 45.6254 8.37266 44.9586 7.83684C44.2918 7.30102 43.3874 7 42.4444 7ZM31.7778 44.1429H28.2222V41.2857H31.7778V44.1429ZM17.5556 38.4286V9.85714H42.4444V38.4286H17.5556Z" fill="#C0C0C0" fill-opacity="0.6"/>
</g>
<defs>
<clipPath id="clip0_69_104">
<rect width="62" height="53" fill="white" transform="translate(-0.5 0.5)"/>
</clipPath>
</defs>
</svg>
