<svg width="62" height="63" viewBox="0 0 62 63" fill="none" xmlns="http://www.w3.org/2000/svg">
<path d="M23.3333 52V47H12.1298C10.9525 47 9.97033 46.615 9.18322 45.845C8.39611 45.075 8.0017 44.1133 8 42.96V16.04C8 14.8883 8.39441 13.9275 9.18322 13.1575C9.97204 12.3875 10.9534 12.0017 12.1272 12H49.8728C51.0483 12 52.0297 12.3858 52.8168 13.1575C53.6039 13.9292 53.9983 14.89 54 16.04V42.9625C54 44.1125 53.6056 45.0733 52.8168 45.845C52.028 46.6167 51.0466 47.0017 49.8728 47H38.6667V52H23.3333ZM12.1298 44.5H49.8728C50.2646 44.5 50.625 44.34 50.9538 44.02C51.2826 43.7 51.4461 43.3467 51.4444 42.96V16.04C51.4444 15.655 51.2809 15.3017 50.9538 14.98C50.6267 14.6583 50.2663 14.4983 49.8728 14.5H12.1272C11.7354 14.5 11.375 14.66 11.0462 14.98C10.7174 15.3 10.5539 15.6533 10.5556 16.04V42.9625C10.5556 43.3458 10.7191 43.6983 11.0462 44.02C11.3733 44.3417 11.7337 44.5017 12.1272 44.5" fill="#C0C0C0" fill-opacity="0.6"/>
</svg>
