<svg width="62" height="63" viewBox="0 0 62 63" fill="none" xmlns="http://www.w3.org/2000/svg">
<g clip-path="url(#clip0_69_98)">
<path d="M56 30.6486V22.6486C56 22.4766 55.8356 22.3116 55.5431 22.19C55.2505 22.0683 54.8537 22 54.44 22H5.56C5.14626 22 4.74947 22.0683 4.45691 22.19C4.16436 22.3116 4 22.4766 4 22.6486V30.6486M56 30.6486H4M56 30.6486L53.946 33.4422C53.6208 33.885 52.9623 34.2728 52.0674 34.5484C51.1725 34.8239 50.0884 34.9728 48.9748 34.973H45.6M4 30.6486L6.054 33.4422C6.37918 33.885 7.03769 34.2728 7.93261 34.5484C8.82753 34.8239 9.91158 34.9728 11.0252 34.973H14.4M45.6 26.3243H48.2M23.5 34.4324C23.5 34.4324 23.5 42 14.4 42M36.5 34.4324C36.5 34.4324 36.5 42 45.6 42M30 34.4324V42" stroke="#C0C0C0" stroke-opacity="0.6" stroke-width="1.5" stroke-linecap="round" stroke-linejoin="round"/>
</g>
<defs>
<clipPath id="clip0_69_98">
<rect width="62" height="62" fill="white" transform="translate(0 0.5)"/>
</clipPath>
</defs>
</svg>
