<svg width="62" height="63" viewBox="0 0 62 63" fill="none" xmlns="http://www.w3.org/2000/svg">
<path d="M53.1482 42H50.5926V17C50.5926 15.6739 50.1439 14.4021 49.3451 13.4645C48.5463 12.5268 47.463 12 46.3333 12H15.6667C14.537 12 13.4537 12.5268 12.6549 13.4645C11.8561 14.4021 11.4074 15.6739 11.4074 17V42H8.85185C8.62593 42 8.40926 42.1054 8.2495 42.2929C8.08975 42.4804 8 42.7348 8 43V47C8 48.3261 8.44874 49.5979 9.24751 50.5355C10.0463 51.4732 11.1296 52 12.2593 52H49.7407C50.8704 52 51.9537 51.4732 52.7525 50.5355C53.5513 49.5979 54 48.3261 54 47V43C54 42.7348 53.9103 42.4804 53.7505 42.2929C53.5907 42.1054 53.3741 42 53.1482 42ZM13.1111 17C13.1111 16.2044 13.3804 15.4413 13.8596 14.8787C14.3389 14.3161 14.9889 14 15.6667 14H46.3333C47.0111 14 47.6611 14.3161 48.1404 14.8787C48.6196 15.4413 48.8889 16.2044 48.8889 17V42H13.1111V17ZM52.2963 47C52.2963 47.7957 52.0271 48.5587 51.5478 49.1213C51.0685 49.6839 50.4185 50 49.7407 50H12.2593C11.5815 50 10.9315 49.6839 10.4522 49.1213C9.97295 48.5587 9.7037 47.7957 9.7037 47V44H52.2963V47ZM35.2593 21C35.2593 21.2652 35.1695 21.5196 35.0098 21.7071C34.85 21.8946 34.6333 22 34.4074 22H27.5926C27.3667 22 27.15 21.8946 26.9902 21.7071C26.8305 21.5196 26.7407 21.2652 26.7407 21C26.7407 20.7348 26.8305 20.4804 26.9902 20.2929C27.15 20.1054 27.3667 20 27.5926 20H34.4074C34.6333 20 34.85 20.1054 35.0098 20.2929C35.1695 20.4804 35.2593 20.7348 35.2593 21Z" fill="#C0C0C0" fill-opacity="0.6"/>
</svg>
