<svg width="25" height="24" viewBox="0 0 25 24" fill="none" xmlns="http://www.w3.org/2000/svg">
<path d="M22.436 20.518C22.746 21.4675 21.757 22.3195 20.8635 21.873L3.12153 13.005C2.29253 12.59 2.29253 11.407 3.12153 10.9925L20.8635 2.12399C21.757 1.67749 22.746 2.52999 22.436 3.47899L19.6575 11.999L22.436 20.518ZM18.546 11.3735L21.155 3.37599L3.90452 11.9985L21.155 20.6215L18.5465 12.6235L10.125 12.6235C9.95927 12.6235 9.80029 12.5576 9.68308 12.4404C9.56587 12.3232 9.50003 12.1643 9.50003 11.9985C9.50003 11.8327 9.56587 11.6738 9.68308 11.5566C9.80029 11.4393 9.95927 11.3735 10.125 11.3735L18.546 11.3735Z" fill="#161227"/>
</svg>
